<?xml version="1.0" encoding="utf-8"?>
<!-- Generator: Adobe Illustrator 16.0.0, SVG Export Plug-In . SVG Version: 6.00 Build 0)  -->
<!DOCTYPE svg PUBLIC "-//W3C//DTD SVG 1.1//EN" "http://www.w3.org/Graphics/SVG/1.1/DTD/svg11.dtd">
<svg version="1.1" id="图层_1" xmlns="http://www.w3.org/2000/svg" xmlns:xlink="http://www.w3.org/1999/xlink" x="0px" y="0px"
	 width="1200px" height="1000px" viewBox="0 0 1200 1000" enable-background="new 0 0 1200 1000" xml:space="preserve">
<path fill="#FFE133" stroke="#4C4C4C" stroke-miterlimit="10" d="M88.099,56.026c-0.902-0.872-2.316-1.495-4.248-1.873
	c-1.93-0.375-3.213-0.71-3.852-1.006c-0.64-0.293-0.955-0.765-0.953-1.412c0.004-1.056,0.999-1.583,2.98-1.575
	c1.979,0.006,4.011,1.57,4.104,2.689l2.788-2.123c-0.167-2.413-0.794-2.82-3.875-3.221l-0.989-3.005l-3.567-0.012l-0.008,1.985
	c-1.415,0.167-2.547,1.58-3.396,2.234c-1.151,0.891-1.731,1.983-1.736,3.274c-0.003,1.204,0.441,4.209,1.33,5.021
	c0.891,0.811,2.346,1.415,4.356,1.816c2.012,0.4,3.517,2.888,1.269,2.879c-2.397-0.008-3.733-0.921-4.002-2.74l-3.745,2.289
	c0.53,2.963,2.486,3.664,5.864,4.107l-0.008,1.732l3.566,0.014l0.007-1.756c1.188-0.188,2.279-1.58,3.271-2.181
	c1.455-0.879,2.185-2.13,2.19-3.751C89.452,58.027,89.001,56.896,88.099,56.026z"/>
</svg>
