<?xml version="1.0" encoding="utf-8"?>
<!-- Generator: Adobe Illustrator 22.1.0, SVG Export Plug-In . SVG Version: 6.00 Build 0)  -->
<svg version="1.1" xmlns="http://www.w3.org/2000/svg" xmlns:xlink="http://www.w3.org/1999/xlink" x="0px" y="0px"
	 viewBox="0 0 404 404" style="enable-background:new 0 0 404 404;" xml:space="preserve">
<style type="text/css">
	.st0{fill:#00964E;stroke:#00964E;stroke-miterlimit:10;}
</style>
<path class="st0" d="M29.8,5.5c-1.5,2.5-2.6,5.1-4.8,7.1c-0.4,0.5-0.2,1,0.4,1.1c1.3,0.3,2.5,0.4,3.7,0.4c-0.9,2.3-0.7,5.7-1,8
	c-0.7,4.9-2.1,9.8-2.2,14.7c0,0.5,0.5,0.8,1,0.7c2.1-1.2,3.8-2.8,5.6-4.2c2,1.8,3.6,3.8,5.6,5.6c0.5,0.4,1.1,0.3,1.2-0.4
	c1.2-8.4-4.3-16.3-5.3-24.6c1.5,0.3,3,0.3,4.5,0.4c0.5,0,0.8-0.6,0.6-1.1c-2.5-2.9-5.2-5.5-8.2-7.9C30.3,5.1,29.9,5.3,29.8,5.5z"/>
</svg>
